<svg width="301" height="301" viewBox="0 0 301 301" fill="none" xmlns="http://www.w3.org/2000/svg">
<g filter="url(#filter0_d_1018_61086)">
<path opacity="0.2" d="M120.5 215.675C173.064 215.675 215.675 173.064 215.675 120.5C215.675 67.9357 173.064 25.3242 120.5 25.3242C67.9357 25.3242 25.3242 67.9357 25.3242 120.5C25.3242 173.064 67.9357 215.675 120.5 215.675Z" fill="#01132B"/>
<path opacity="0.7" d="M120.5 221C176.005 221 221 176.005 221 120.5C221 64.9954 176.005 20 120.5 20C64.9954 20 20 64.9954 20 120.5C20 176.005 64.9954 221 120.5 221Z" fill="#021B3A"/>
<g filter="url(#filter1_d_1018_61086)">
<path d="M121.339 191.689C161.037 191.689 193.22 159.507 193.22 119.809C193.22 80.1099 161.037 47.9277 121.339 47.9277C81.6401 47.9277 49.458 80.1099 49.458 119.809C49.458 159.507 81.6401 191.689 121.339 191.689Z" stroke="#08D3FF" stroke-width="2"/>
</g>
<g filter="url(#filter2_d_1018_61086)">
<path d="M121.339 186.365C158.097 186.365 187.895 156.566 187.895 119.808C187.895 83.0502 158.097 53.252 121.339 53.252C84.5805 53.252 54.7822 83.0502 54.7822 119.808C54.7822 156.566 84.5805 186.365 121.339 186.365Z" fill="#01132B"/>
<path d="M121.339 185.699C157.729 185.699 187.23 156.199 187.23 119.809C187.23 83.4183 157.729 53.918 121.339 53.918C84.9485 53.918 55.4482 83.4183 55.4482 119.809C55.4482 156.199 84.9485 185.699 121.339 185.699Z" stroke="#0B6488"/>
</g>
<mask id="mask0_1018_61086" style="mask-type:luminance" maskUnits="userSpaceOnUse" x="41" y="33" width="160" height="184">
<path d="M126.293 64.5314L141.031 33.6998L183.368 73.5021L163.461 87.3429L179.605 138.659L200.138 144.901L178.367 183.533L134.684 216.46L113.773 200.841L118.451 183.283L76.8813 163.365L62.5898 174.862L50.6643 152.091L65.6334 143.961L60.0204 123.013L53.2948 118.798L41.1615 114.018L63.6801 40.0941L98.5968 52.0887L106.966 64.7297L126.293 64.5314Z" fill="white"/>
</mask>
<g mask="url(#mask0_1018_61086)">
<path d="M121.335 191.022C160.666 191.022 192.551 159.138 192.551 119.807C192.551 80.4759 160.666 48.5918 121.335 48.5918C82.0043 48.5918 50.1201 80.4759 50.1201 119.807C50.1201 159.138 82.0043 191.022 121.335 191.022Z" stroke="#01132B" stroke-width="3"/>
</g>
<mask id="mask1_1018_61086" style="mask-type:luminance" maskUnits="userSpaceOnUse" x="42" y="53" width="158" height="135">
<path d="M199.704 53.252H42.6309V187.696H199.704V53.252Z" fill="white"/>
</mask>
<g mask="url(#mask1_1018_61086)">
<g filter="url(#filter3_d_1018_61086)">
<path d="M88.8066 131V113H103.818C104.943 113 105.85 113.094 106.537 113.281C107.225 113.461 107.752 113.73 108.119 114.09C108.494 114.441 108.744 114.883 108.869 115.414C108.994 115.945 109.057 116.555 109.057 117.242C109.057 117.742 109.014 118.184 108.928 118.566C108.842 118.949 108.729 119.281 108.588 119.562C108.447 119.844 108.287 120.082 108.107 120.277C107.928 120.465 107.744 120.621 107.557 120.746C107.119 121.043 106.619 121.211 106.057 121.25C106.76 121.289 107.385 121.461 107.932 121.766C108.166 121.898 108.393 122.066 108.611 122.27C108.838 122.465 109.037 122.711 109.209 123.008C109.389 123.297 109.533 123.641 109.643 124.039C109.752 124.43 109.807 124.883 109.807 125.398C109.807 126.023 109.775 126.598 109.713 127.121C109.658 127.637 109.541 128.102 109.361 128.516C109.182 128.93 108.924 129.293 108.588 129.605C108.252 129.918 107.803 130.18 107.24 130.391C106.686 130.594 106.002 130.746 105.189 130.848C104.385 130.949 103.42 131 102.295 131H88.8066ZM101.545 129.125C102.42 129.125 103.178 129.113 103.818 129.09C104.459 129.059 105.002 129 105.447 128.914C105.893 128.82 106.252 128.691 106.525 128.527C106.799 128.355 107.01 128.133 107.158 127.859C107.314 127.578 107.42 127.238 107.475 126.84C107.529 126.441 107.557 125.961 107.557 125.398C107.557 124.961 107.529 124.582 107.475 124.262C107.42 123.934 107.314 123.66 107.158 123.441C107.01 123.215 106.799 123.035 106.525 122.902C106.252 122.762 105.893 122.652 105.447 122.574C105.002 122.496 104.459 122.445 103.818 122.422C103.178 122.391 102.42 122.375 101.545 122.375H91.0566V129.125H101.545ZM101.545 120.5C102.311 120.5 102.971 120.484 103.525 120.453C104.08 120.422 104.553 120.363 104.943 120.277C105.334 120.191 105.65 120.074 105.893 119.926C106.135 119.77 106.322 119.57 106.455 119.328C106.596 119.086 106.689 118.797 106.736 118.461C106.783 118.117 106.807 117.711 106.807 117.242C106.807 116.742 106.752 116.336 106.643 116.023C106.533 115.711 106.338 115.473 106.057 115.309C105.775 115.137 105.393 115.023 104.908 114.969C104.432 114.906 103.818 114.875 103.068 114.875H91.0566V120.5H101.545ZM113.557 131V113H131.557V114.875H115.807V120.875H130.807V122.75H115.807V129.125H131.557V131H113.557ZM154.057 113V114.875H145.057V131H142.807V114.875H133.807V113H154.057Z" fill="white"/>
</g>
</g>
</g>
<defs>
<filter id="filter0_d_1018_61086" x="-60" y="-60" width="361" height="361" filterUnits="userSpaceOnUse" color-interpolation-filters="sRGB">
<feFlood flood-opacity="0" result="BackgroundImageFix"/>
<feColorMatrix in="SourceAlpha" type="matrix" values="0 0 0 0 0 0 0 0 0 0 0 0 0 0 0 0 0 0 127 0" result="hardAlpha"/>
<feOffset/>
<feGaussianBlur stdDeviation="40"/>
<feComposite in2="hardAlpha" operator="out"/>
<feColorMatrix type="matrix" values="0 0 0 0 0.0313726 0 0 0 0 0.827451 0 0 0 0 1 0 0 0 0.33 0"/>
<feBlend mode="normal" in2="BackgroundImageFix" result="effect1_dropShadow_1018_61086"/>
<feBlend mode="normal" in="SourceGraphic" in2="effect1_dropShadow_1018_61086" result="shape"/>
</filter>
<filter id="filter1_d_1018_61086" x="42.458" y="40.9277" width="157.762" height="157.762" filterUnits="userSpaceOnUse" color-interpolation-filters="sRGB">
<feFlood flood-opacity="0" result="BackgroundImageFix"/>
<feColorMatrix in="SourceAlpha" type="matrix" values="0 0 0 0 0 0 0 0 0 0 0 0 0 0 0 0 0 0 127 0" result="hardAlpha"/>
<feOffset/>
<feGaussianBlur stdDeviation="3"/>
<feColorMatrix type="matrix" values="0 0 0 0 0.0313726 0 0 0 0 0.701961 0 0 0 0 0.862745 0 0 0 0.612 0"/>
<feBlend mode="normal" in2="BackgroundImageFix" result="effect1_dropShadow_1018_61086"/>
<feBlend mode="normal" in="SourceGraphic" in2="effect1_dropShadow_1018_61086" result="shape"/>
</filter>
<filter id="filter2_d_1018_61086" x="48.7822" y="47.252" width="145.112" height="145.113" filterUnits="userSpaceOnUse" color-interpolation-filters="sRGB">
<feFlood flood-opacity="0" result="BackgroundImageFix"/>
<feColorMatrix in="SourceAlpha" type="matrix" values="0 0 0 0 0 0 0 0 0 0 0 0 0 0 0 0 0 0 127 0" result="hardAlpha"/>
<feOffset/>
<feGaussianBlur stdDeviation="3"/>
<feColorMatrix type="matrix" values="0 0 0 0 0 0 0 0 0 0.713726 0 0 0 0 1 0 0 0 1 0"/>
<feBlend mode="normal" in2="BackgroundImageFix" result="effect1_dropShadow_1018_61086"/>
<feBlend mode="normal" in="SourceGraphic" in2="effect1_dropShadow_1018_61086" result="shape"/>
</filter>
<filter id="filter3_d_1018_61086" x="73.8066" y="98" width="95.25" height="48" filterUnits="userSpaceOnUse" color-interpolation-filters="sRGB">
<feFlood flood-opacity="0" result="BackgroundImageFix"/>
<feColorMatrix in="SourceAlpha" type="matrix" values="0 0 0 0 0 0 0 0 0 0 0 0 0 0 0 0 0 0 127 0" result="hardAlpha"/>
<feOffset/>
<feGaussianBlur stdDeviation="7.5"/>
<feColorMatrix type="matrix" values="0 0 0 0 0 0 0 0 0 0 0 0 0 0 0 0 0 0 0.25 0"/>
<feBlend mode="normal" in2="BackgroundImageFix" result="effect1_dropShadow_1018_61086"/>
<feBlend mode="normal" in="SourceGraphic" in2="effect1_dropShadow_1018_61086" result="shape"/>
</filter>
</defs>
</svg>
